<svg xmlns="http://www.w3.org/2000/svg" xmlns:xlink="http://www.w3.org/1999/xlink" width="124.021" height="47.01" viewBox="0 0 124.021 47.01">
  <defs>
    <clipPath id="clip-path">
      <path id="Path_333" data-name="Path 333" d="M27.344,40.719a20.581,20.581,0,0,0-5.381-11.013A20.82,20.82,0,0,0,19.6,27.554,14.778,14.778,0,0,0,11.861.18H4.7A4.7,4.7,0,0,0,0,4.877V24.823a4.88,4.88,0,0,0,4.879,4.883H5.987c.147-.011.3-.017.445-.023s.334-.009.5-.009c.319,0,.635.011.942.032A14.19,14.19,0,0,1,20.764,40.719a14.279,14.279,0,0,1,.355,3.138c0,.478-.024.95-.07,1.414a1.718,1.718,0,0,0,1.714,1.883H25.8a1.719,1.719,0,0,0,1.715-1.572q.071-.851.07-1.722a20.808,20.808,0,0,0-.239-3.144ZM6.432,20.693V9.194a2.581,2.581,0,0,1,2.58-2.581h2.123c.239-.02.482-.032.726-.032s.486.011.725.032A8.347,8.347,0,0,1,20.2,14.847a8.433,8.433,0,0,1-8.437,8.426H9.012a2.58,2.58,0,0,1-2.58-2.58Z" transform="translate(0 -0.18)" fill="none"/>
    </clipPath>
    <linearGradient id="linear-gradient" x1="0.348" y1="0.833" x2="0.919" y2="-0.38" gradientUnits="objectBoundingBox">
      <stop offset="0" stop-color="#333" stop-opacity="0.812"/>
      <stop offset="0.13" stop-color="#475b3e" stop-opacity="0.6"/>
      <stop offset="0.57" stop-color="#82d15e" stop-opacity="0"/>
    </linearGradient>
  </defs>
  <g id="logo" transform="translate(0 0.01)">
    <circle id="Ellipse_280" data-name="Ellipse 280" cx="3.64" cy="3.64" r="3.64" transform="translate(0 39.719)" fill="#21bf73"/>
    <path id="Path_331" data-name="Path 331" d="M27.344,40.719a20.581,20.581,0,0,0-5.381-11.013A20.82,20.82,0,0,0,19.6,27.554,14.778,14.778,0,0,0,11.861.18H4.7A4.7,4.7,0,0,0,0,4.877V24.823a4.88,4.88,0,0,0,4.879,4.883H5.987c.147-.011.3-.017.445-.023s.334-.009.5-.009c.319,0,.635.011.942.032A14.19,14.19,0,0,1,20.764,40.719a14.279,14.279,0,0,1,.355,3.138c0,.478-.024.95-.07,1.414a1.718,1.718,0,0,0,1.714,1.883H25.8a1.719,1.719,0,0,0,1.715-1.572q.071-.851.07-1.722a20.808,20.808,0,0,0-.239-3.144ZM6.432,20.693V9.194a2.581,2.581,0,0,1,2.58-2.581h2.123c.239-.02.482-.032.726-.032s.486.011.725.032A8.347,8.347,0,0,1,20.2,14.847a8.433,8.433,0,0,1-8.437,8.426H9.012a2.58,2.58,0,0,1-2.58-2.58Z" transform="translate(0 -0.154)" fill="#21bf73"/>
    <g id="Group_964" data-name="Group 964" transform="translate(0 0.026)" clip-path="url(#clip-path)">
      <path id="Path_332" data-name="Path 332" d="M92.163,150.231c0,2.439-2.471,4.521-5.948,5.339a20.581,20.581,0,0,0-12.385-6.248c.7-2.721,4.513-4.8,9.108-4.8C88.033,144.52,92.163,147.077,92.163,150.231Z" transform="translate(-64.457 -126.196)" fill="url(#linear-gradient)"/>
    </g>
    <path id="Path_334" data-name="Path 334" d="M264.014,200.467h4.863v20.485H264.1l-.254-2.992c-1.162,2.412-4.364,3.574-6.648,3.616-6.067.042-10.554-3.7-10.554-10.888,0-7.065,4.7-10.761,10.679-10.721a7.519,7.519,0,0,1,6.524,3.325Zm-12.3,10.223a5.869,5.869,0,0,0,6.067,6.233c7.979,0,7.979-12.425,0-12.425a5.834,5.834,0,0,0-6.067,6.192Z" transform="translate(-215.329 -174.579)" fill="#2d394f"/>
    <path id="Path_335" data-name="Path 335" d="M457.3,136.47v11.34c1.211-2.119,4.573-3.283,6.726-3.283,5.984,0,10.43,3.656,10.43,10.721,0,6.726-4.529,10.721-10.554,10.721a7.441,7.441,0,0,1-6.6-3.278l-.332,2.825H452.23V136.47Zm.332,18.789a5.88,5.88,0,1,0,11.761,0,5.65,5.65,0,0,0-5.819-5.983,5.837,5.837,0,0,0-5.942,5.976Z" transform="translate(-394.819 -119.141)" fill="#2d394f"/>
    <path id="Path_336" data-name="Path 336" d="M661.879,136.47v11.34c1.211-2.119,4.573-3.283,6.726-3.283,5.983,0,10.43,3.656,10.43,10.721,0,6.726-4.529,10.721-10.554,10.721a7.44,7.44,0,0,1-6.6-3.283l-.332,2.825H656.81V136.47Zm.332,18.789a5.88,5.88,0,1,0,11.76,0,5.65,5.65,0,0,0-5.818-5.983,5.839,5.839,0,0,0-5.943,5.976Z" transform="translate(-573.429 -119.141)" fill="#2d394f"/>
    <path id="Path_337" data-name="Path 337" d="M863.765,138.044a2.992,2.992,0,1,1-2.993-2.993,2.992,2.992,0,0,1,2.993,2.993Zm-5.527,5.693v20.57h5.07v-20.57Z" transform="translate(-748.886 -117.932)" fill="#2d394f"/>
    <path id="Path_338" data-name="Path 338" d="M942.348,136.47v29.046H937.32V136.47Z" transform="translate(-818.328 -119.141)" fill="#2d394f"/>
    <path id="Path_339" data-name="Path 339" d="M256.06.46V10.927h6.519v2.209H253.67V.46Z" transform="translate(-221.465 -0.397)" fill="#21bf73"/>
    <path id="Path_340" data-name="Path 340" d="M335,33.418a2.38,2.38,0,0,0,2.666,1.9,3.683,3.683,0,0,0,2.39-.833l1.411,1.4a5.479,5.479,0,0,1-3.839,1.45,4.5,4.5,0,0,1-4.907-4.763,4.467,4.467,0,0,1,4.744-4.672c2.989,0,4.853,1.847,4.509,5.523Zm4.853-1.823a2.045,2.045,0,0,0-2.318-1.739,2.4,2.4,0,0,0-2.5,1.739Z" transform="translate(-290.484 -24.357)" fill="#21bf73"/>
    <path id="Path_341" data-name="Path 341" d="M422.714,28.465h2.119v8.928h-2.088l-.1-1.31a3.4,3.4,0,0,1-2.9,1.575,4.319,4.319,0,0,1-4.6-4.744,4.346,4.346,0,0,1,4.653-4.672,3.278,3.278,0,0,1,2.844,1.449Zm-5.36,4.454A2.556,2.556,0,0,0,420,35.636c3.477,0,3.477-5.414,0-5.414a2.541,2.541,0,0,0-2.643,2.7Z" transform="translate(-362.444 -24.654)" fill="#21bf73"/>
    <path id="Path_342" data-name="Path 342" d="M508.186,28.37l.163,1.032a2.634,2.634,0,0,1,2.518-1.27,3.422,3.422,0,0,1,2.3.85l-1,1.926a2.2,2.2,0,0,0-1.593-.578,2.061,2.061,0,0,0-2.228,2.264V37.3h-2.21V28.37Z" transform="translate(-441.887 -24.559)" fill="#21bf73"/>
    <path id="Path_343" data-name="Path 343" d="M574.248,37.924V33.252a2.129,2.129,0,0,0-2.152-2.39,2.353,2.353,0,0,0-2.287,2.5v4.563H567.62V28.979h1.973l.147,1.211a4.019,4.019,0,0,1,2.932-1.345c2.1,0,3.785,1.575,3.785,4.382v4.689Z" transform="translate(-495.562 -25.186)" fill="#21bf73"/>
    <path id="Path_344" data-name="Path 344" d="M687.974,29.85l1.952,6.718,2.045-6.718h2.445l-3.11,8.982h-2.572l-.923-2.645-.8-2.988-.8,2.988-.924,2.645h-2.571L679.59,29.85h2.464l2.046,6.718,1.937-6.718Z" transform="translate(-593.317 -26.057)" fill="#21bf73"/>
    <path id="Path_345" data-name="Path 345" d="M812.138,1.291a1.3,1.3,0,1,1-1.3-1.3A1.3,1.3,0,0,1,812.138,1.291Zm-2.413,2.479v8.965h2.21V3.771Z" transform="translate(-706.761 0.002)" fill="#21bf73"/>
    <path id="Path_346" data-name="Path 346" d="M842.075,10.16V12.7h2.463v1.9h-2.48v3.85a1.11,1.11,0,0,0,1.16,1.27,2.529,2.529,0,0,0,1.068-.269l.619,1.883a4.951,4.951,0,0,1-1.829.381,2.884,2.884,0,0,1-3.2-3.261V14.6H838.2v-1.9h1.667v-2.3Z" transform="translate(-731.791 -8.867)" fill="#21bf73"/>
    <path id="Path_347" data-name="Path 347" d="M903.327.46V5.422a3.3,3.3,0,0,1,2.793-1.345c2.54,0,3.657,1.72,3.657,4.346v4.708h-2.209V8.45c0-1.63-.851-2.318-2.031-2.318a2.287,2.287,0,0,0-2.209,2.445v4.557H901.12V.46Z" transform="translate(-786.724 -0.397)" fill="#21bf73"/>
  </g>
</svg>
