<svg xmlns="http://www.w3.org/2000/svg" xmlns:xlink="http://www.w3.org/1999/xlink" width="116.376" height="27.078" viewBox="0 0 116.376 27.078">
  <defs>
    <linearGradient id="linear-gradient" x1="0.525" y1="0.413" x2="1.133" y2="0.803" gradientUnits="objectBoundingBox">
      <stop offset="0" stop-color="#44c0c4"/>
      <stop offset="1" stop-color="#007398"/>
    </linearGradient>
    <linearGradient id="linear-gradient-2" x1="0.416" y1="0.376" x2="0.686" y2="0.701" gradientUnits="objectBoundingBox">
      <stop offset="0" stop-color="#f9a546"/>
      <stop offset="1" stop-color="#ed2f24"/>
    </linearGradient>
    <linearGradient id="linear-gradient-3" x1="0.448" y1="0.398" x2="0.526" y2="0.97" gradientUnits="objectBoundingBox">
      <stop offset="0" stop-color="#ec147f"/>
      <stop offset="1" stop-color="#5e1045"/>
    </linearGradient>
    <linearGradient id="linear-gradient-4" x1="1.813" y1="-3.056" x2="0.338" y2="1.435" xlink:href="#linear-gradient"/>
    <radialGradient id="radial-gradient" cx="0.5" cy="0.5" r="1.441" gradientTransform="translate(0.327) scale(0.347 1)" gradientUnits="objectBoundingBox">
      <stop offset="0" stop-color="#fff"/>
      <stop offset="1" stop-color="#f9a546"/>
    </radialGradient>
    <radialGradient id="radial-gradient-2" cx="0.842" cy="0.243" r="2.335" gradientTransform="translate(0.332) scale(0.606 1)" gradientUnits="objectBoundingBox">
      <stop offset="0" stop-color="#fff"/>
      <stop offset="1" stop-color="#007398"/>
    </radialGradient>
    <radialGradient id="radial-gradient-3" cx="0.485" cy="0.611" r="1.33" gradientTransform="translate(-0.322) scale(1.644 1)" xlink:href="#radial-gradient-2"/>
  </defs>
  <g id="Group_1019" data-name="Group 1019" transform="translate(-17.124 -41.176)">
    <g id="Group_511" data-name="Group 511" transform="translate(17.124 41.176)">
      <path id="Path_713" data-name="Path 713" d="M2192.656,1597.318a2.038,2.038,0,0,1-.962,2.172,1.66,1.66,0,0,1-2.333-.476l-1.746-2.705,2.333-.82a.282.282,0,0,0,.1-.5l-4.708-3.018a27.278,27.278,0,0,0,3.1-4.142,22.758,22.758,0,0,0,2.067-4.36Z" transform="translate(-2172.054 -1573.081)" fill="url(#linear-gradient)"/>
      <path id="Path_714" data-name="Path 714" d="M1478.256,1412.48l.486,3.133a25,25,0,0,1-5.17,8.5l-3.036-1.946a.411.411,0,0,0-.613.392l.619,4.464a33.129,33.129,0,0,1-8.528,5.166,2.465,2.465,0,0,1-1.7-2.73l1.779-11.484a21.292,21.292,0,0,0,11.136-2.21A23.186,23.186,0,0,0,1478.256,1412.48Z" transform="translate(-1460.285 -1405.224)" fill="url(#linear-gradient-2)"/>
      <path id="Path_715" data-name="Path 715" d="M1575.142,1023.632l.021.134a23.193,23.193,0,0,1-5.026,3.286,21.289,21.289,0,0,1-11.136,2.21l.872-5.63a1.212,1.212,0,0,1,1.2-1.026h2.481c.16-3.411,1.87-6.1,3.955-6.1s3.8,2.685,3.955,6.1h2.481A1.213,1.213,0,0,1,1575.142,1023.632Zm-10.669-1.026h6.069a9.367,9.367,0,0,0-.27-1.827,6.914,6.914,0,0,0-.748-1.857,3.751,3.751,0,0,0-1-1.14,1.637,1.637,0,0,0-2.028,0,3.753,3.753,0,0,0-1,1.14,6.914,6.914,0,0,0-.747,1.857,9.34,9.34,0,0,0-.27,1.827Z" transform="translate(-1557.191 -1016.51)" fill="url(#linear-gradient-3)"/>
      <path id="Path_716" data-name="Path 716" d="M1566.764,2210.356a.752.752,0,0,1-.632,1.16h-10.746a2.463,2.463,0,0,1-.736-.111,33.115,33.115,0,0,0,8.528-5.166l.645,4.648a.282.282,0,0,0,.494.118l1.721-1.774.726,1.125Z" transform="translate(-1552.921 -2184.438)" fill="url(#linear-gradient-4)"/>
      <g id="Group_510" data-name="Group 510" transform="translate(1.085 9.931)">
        <path id="Path_717" data-name="Path 717" d="M2159.051,1567.44a25,25,0,0,0,5.17-8.5l-.071-.458a23.523,23.523,0,0,1-5.59,8.646Z" transform="translate(-2146.849 -1558.48)" fill="#ce2420"/>
        <path id="Path_718" data-name="Path 718" d="M1520.144,2169.782a33.127,33.127,0,0,0,8.527-5.166l-.108-.777a38.36,38.36,0,0,1-9.064,5.632A2.451,2.451,0,0,0,1520.144,2169.782Z" transform="translate(-1519.5 -2152.747)" fill="#ce2420"/>
      </g>
      <path id="Path_719" data-name="Path 719" d="M1559.1,1398.2l-.1.638a19.973,19.973,0,0,0,7.419-.775,23.7,23.7,0,0,0,3.717-1.435,23.186,23.186,0,0,0,5.026-3.286l-.021-.134a1.2,1.2,0,0,0-.057-.224A22.173,22.173,0,0,1,1559.1,1398.2Z" transform="translate(-1557.191 -1386.081)" fill="#660c46"/>
      <path id="Path_720" data-name="Path 720" d="M1559,1417.968l.546.03c.046,0,.091.007.137.007l.137,0,.273.006.137,0h.137l.273,0,.273,0h.068l.068,0,.137-.007.273-.013c.091-.005.182-.007.273-.016l.544-.045.068-.006.068-.008.136-.016.271-.031.135-.016.068-.008.067-.01.27-.04c.361-.049.718-.121,1.076-.185l.533-.115.133-.029c.044-.009.088-.022.132-.032l.265-.066c.354-.083.7-.189,1.053-.286l.52-.165.13-.042.065-.021.064-.023.257-.091.258-.09.129-.045.127-.049.509-.2c.085-.032.168-.069.252-.1l.251-.107.251-.107c.042-.017.083-.038.124-.056l.124-.057.5-.228c.163-.081.328-.158.489-.242.325-.164.645-.337.963-.514s.63-.365.94-.556.614-.392.915-.6.6-.418.888-.637c.144-.111.29-.221.432-.335s.285-.228.426-.343c-.137.121-.273.243-.412.36s-.281.233-.422.349q-.428.342-.871.666t-.9.62c-.076.05-.154.1-.231.148l-.116.073-.117.071-.234.143-.236.139c-.078.047-.158.091-.238.136s-.159.091-.239.134l-.241.131c-.08.043-.162.085-.243.127-.162.086-.326.165-.49.248l-.5.234c-.083.038-.165.079-.249.116l-.252.108-.252.108c-.084.036-.167.074-.253.106l-.511.2-.128.05-.129.046-.259.092-.259.091-.065.023-.065.021-.131.041-.524.165-.529.148-.132.037-.066.018-.067.016-.267.065-.267.064c-.044.01-.089.022-.134.031l-.135.028-.538.111c-.361.062-.721.128-1.084.171l-.272.036-.068.009-.068.007-.137.013-.273.027-.136.013-.068.006-.068,0-.548.033c-.091.007-.183.007-.274.01l-.274.006-.137,0h-.137l-.274,0-.274,0h-.069l-.068,0-.137-.007-.274-.015c-.091,0-.182-.009-.273-.018l-.545-.053Z" transform="translate(-1557.191 -1405.215)" fill="url(#radial-gradient)"/>
      <path id="Path_721" data-name="Path 721" d="M1554.63,2211.425l.57-.258c.189-.088.378-.176.565-.267q.564-.27,1.118-.558c.369-.193.737-.389,1.1-.594s.723-.413,1.079-.629.709-.437,1.058-.665.694-.461,1.036-.7.679-.483,1.012-.732l.25-.188.248-.19.492-.386-.236.206-.239.2-.241.2-.243.2q-.489.39-1,.759c-.337.246-.681.483-1.028.715s-.7.454-1.058.671-.719.425-1.085.626-.736.4-1.11.58-.752.362-1.134.531q-.287.125-.576.245l-.29.119-.292.114Z" transform="translate(-1552.901 -2184.458)" fill="url(#radial-gradient-2)"/>
      <path id="Path_722" data-name="Path 722" d="M2185.34,1591.972q.2-.239.4-.478t.4-.485q.392-.488.764-.99c.248-.335.49-.674.724-1.019s.461-.694.679-1.049.429-.714.631-1.078.395-.734.58-1.107.359-.752.525-1.135c.083-.191.164-.383.242-.577s.153-.388.227-.583l-.1.3c-.034.1-.068.2-.1.3q-.106.295-.219.587-.231.583-.5,1.151c-.177.379-.368.752-.566,1.12s-.41.729-.629,1.086-.449.706-.687,1.05-.484.682-.74,1.012-.519.655-.79.973q-.2.237-.414.47l-.211.232-.215.228Z" transform="translate(-2172.054 -1573.081)" fill="url(#radial-gradient-3)"/>
    </g>
    <g id="Group_513" data-name="Group 513" transform="translate(43.5 43.744)">
      <text id="Crafty" transform="translate(28 18.256)" fill="#07aeaf" font-size="17" font-family="Poppins-Bold, Poppins" font-weight="700"><tspan x="-27.77" y="0">Crafty</tspan></text>
      <text id="Bay" transform="translate(73 18.256)" fill="#fe9900" font-size="17" font-family="Poppins-Bold, Poppins" font-weight="700"><tspan x="-16.745" y="0">Bay</tspan></text>
    </g>
    <g id="Group_511-2" data-name="Group 511" transform="translate(17.124 41.176)">
      <path id="Path_713-2" data-name="Path 713" d="M2192.656,1597.318a2.038,2.038,0,0,1-.962,2.172,1.66,1.66,0,0,1-2.333-.476l-1.746-2.705,2.333-.82a.282.282,0,0,0,.1-.5l-4.708-3.018a27.278,27.278,0,0,0,3.1-4.142,22.758,22.758,0,0,0,2.067-4.36Z" transform="translate(-2172.054 -1573.081)" fill="url(#linear-gradient)"/>
      <path id="Path_714-2" data-name="Path 714" d="M1478.256,1412.48l.486,3.133a25,25,0,0,1-5.17,8.5l-3.036-1.946a.411.411,0,0,0-.613.392l.619,4.464a33.129,33.129,0,0,1-8.528,5.166,2.465,2.465,0,0,1-1.7-2.73l1.779-11.484a21.292,21.292,0,0,0,11.136-2.21A23.186,23.186,0,0,0,1478.256,1412.48Z" transform="translate(-1460.285 -1405.224)" fill="url(#linear-gradient-2)"/>
      <path id="Path_715-2" data-name="Path 715" d="M1575.142,1023.632l.021.134a23.193,23.193,0,0,1-5.026,3.286,21.289,21.289,0,0,1-11.136,2.21l.872-5.63a1.212,1.212,0,0,1,1.2-1.026h2.481c.16-3.411,1.87-6.1,3.955-6.1s3.8,2.685,3.955,6.1h2.481A1.213,1.213,0,0,1,1575.142,1023.632Zm-10.669-1.026h6.069a9.367,9.367,0,0,0-.27-1.827,6.914,6.914,0,0,0-.748-1.857,3.751,3.751,0,0,0-1-1.14,1.637,1.637,0,0,0-2.028,0,3.753,3.753,0,0,0-1,1.14,6.914,6.914,0,0,0-.747,1.857,9.34,9.34,0,0,0-.27,1.827Z" transform="translate(-1557.191 -1016.51)" fill="url(#linear-gradient-3)"/>
      <path id="Path_716-2" data-name="Path 716" d="M1566.764,2210.356a.752.752,0,0,1-.632,1.16h-10.746a2.463,2.463,0,0,1-.736-.111,33.115,33.115,0,0,0,8.528-5.166l.645,4.648a.282.282,0,0,0,.494.118l1.721-1.774.726,1.125Z" transform="translate(-1552.921 -2184.438)" fill="url(#linear-gradient-4)"/>
      <g id="Group_510-2" data-name="Group 510" transform="translate(1.085 9.931)">
        <path id="Path_717-2" data-name="Path 717" d="M2159.051,1567.44a25,25,0,0,0,5.17-8.5l-.071-.458a23.523,23.523,0,0,1-5.59,8.646Z" transform="translate(-2146.849 -1558.48)" fill="#ce2420"/>
        <path id="Path_718-2" data-name="Path 718" d="M1520.144,2169.782a33.127,33.127,0,0,0,8.527-5.166l-.108-.777a38.36,38.36,0,0,1-9.064,5.632A2.451,2.451,0,0,0,1520.144,2169.782Z" transform="translate(-1519.5 -2152.747)" fill="#ce2420"/>
      </g>
      <path id="Path_719-2" data-name="Path 719" d="M1559.1,1398.2l-.1.638a19.973,19.973,0,0,0,7.419-.775,23.7,23.7,0,0,0,3.717-1.435,23.186,23.186,0,0,0,5.026-3.286l-.021-.134a1.2,1.2,0,0,0-.057-.224A22.173,22.173,0,0,1,1559.1,1398.2Z" transform="translate(-1557.191 -1386.081)" fill="#660c46"/>
      <path id="Path_720-2" data-name="Path 720" d="M1559,1417.968l.546.03c.046,0,.091.007.137.007l.137,0,.273.006.137,0h.137l.273,0,.273,0h.068l.068,0,.137-.007.273-.013c.091-.005.182-.007.273-.016l.544-.045.068-.006.068-.008.136-.016.271-.031.135-.016.068-.008.067-.01.27-.04c.361-.049.718-.121,1.076-.185l.533-.115.133-.029c.044-.009.088-.022.132-.032l.265-.066c.354-.083.7-.189,1.053-.286l.52-.165.13-.042.065-.021.064-.023.257-.091.258-.09.129-.045.127-.049.509-.2c.085-.032.168-.069.252-.1l.251-.107.251-.107c.042-.017.083-.038.124-.056l.124-.057.5-.228c.163-.081.328-.158.489-.242.325-.164.645-.337.963-.514s.63-.365.94-.556.614-.392.915-.6.6-.418.888-.637c.144-.111.29-.221.432-.335s.285-.228.426-.343c-.137.121-.273.243-.412.36s-.281.233-.422.349q-.428.342-.871.666t-.9.62c-.076.05-.154.1-.231.148l-.116.073-.117.071-.234.143-.236.139c-.078.047-.158.091-.238.136s-.159.091-.239.134l-.241.131c-.08.043-.162.085-.243.127-.162.086-.326.165-.49.248l-.5.234c-.083.038-.165.079-.249.116l-.252.108-.252.108c-.084.036-.167.074-.253.106l-.511.2-.128.05-.129.046-.259.092-.259.091-.065.023-.065.021-.131.041-.524.165-.529.148-.132.037-.066.018-.067.016-.267.065-.267.064c-.044.01-.089.022-.134.031l-.135.028-.538.111c-.361.062-.721.128-1.084.171l-.272.036-.068.009-.068.007-.137.013-.273.027-.136.013-.068.006-.068,0-.548.033c-.091.007-.183.007-.274.01l-.274.006-.137,0h-.137l-.274,0-.274,0h-.069l-.068,0-.137-.007-.274-.015c-.091,0-.182-.009-.273-.018l-.545-.053Z" transform="translate(-1557.191 -1405.215)" fill="url(#radial-gradient)"/>
      <path id="Path_721-2" data-name="Path 721" d="M1554.63,2211.425l.57-.258c.189-.088.378-.176.565-.267q.564-.27,1.118-.558c.369-.193.737-.389,1.1-.594s.723-.413,1.079-.629.709-.437,1.058-.665.694-.461,1.036-.7.679-.483,1.012-.732l.25-.188.248-.19.492-.386-.236.206-.239.2-.241.2-.243.2q-.489.39-1,.759c-.337.246-.681.483-1.028.715s-.7.454-1.058.671-.719.425-1.085.626-.736.4-1.11.58-.752.362-1.134.531q-.287.125-.576.245l-.29.119-.292.114Z" transform="translate(-1552.901 -2184.458)" fill="url(#radial-gradient-2)"/>
      <path id="Path_722-2" data-name="Path 722" d="M2185.34,1591.972q.2-.239.4-.478t.4-.485q.392-.488.764-.99c.248-.335.49-.674.724-1.019s.461-.694.679-1.049.429-.714.631-1.078.395-.734.58-1.107.359-.752.525-1.135c.083-.191.164-.383.242-.577s.153-.388.227-.583l-.1.3c-.034.1-.068.2-.1.3q-.106.295-.219.587-.231.583-.5,1.151c-.177.379-.368.752-.566,1.12s-.41.729-.629,1.086-.449.706-.687,1.05-.484.682-.74,1.012-.519.655-.79.973q-.2.237-.414.47l-.211.232-.215.228Z" transform="translate(-2172.054 -1573.081)" fill="url(#radial-gradient-3)"/>
    </g>
    <g id="Group_513-2" data-name="Group 513" transform="translate(43.5 43.744)">
      <text id="Crafty-2" data-name="Crafty" transform="translate(28 18.256)" fill="#07aeaf" font-size="17" font-family="Poppins-Bold, Poppins" font-weight="700"><tspan x="-27.77" y="0">Crafty</tspan></text>
      <text id="Bay-2" data-name="Bay" transform="translate(73 18.256)" fill="#fe9900" font-size="17" font-family="Poppins-Bold, Poppins" font-weight="700"><tspan x="-16.745" y="0">Bay</tspan></text>
    </g>
    <g id="Group_511-3" data-name="Group 511" transform="translate(17.124 41.176)">
      <path id="Path_713-3" data-name="Path 713" d="M2192.656,1597.318a2.038,2.038,0,0,1-.962,2.172,1.66,1.66,0,0,1-2.333-.476l-1.746-2.705,2.333-.82a.282.282,0,0,0,.1-.5l-4.708-3.018a27.278,27.278,0,0,0,3.1-4.142,22.758,22.758,0,0,0,2.067-4.36Z" transform="translate(-2172.054 -1573.081)" fill="url(#linear-gradient)"/>
      <path id="Path_714-3" data-name="Path 714" d="M1478.256,1412.48l.486,3.133a25,25,0,0,1-5.17,8.5l-3.036-1.946a.411.411,0,0,0-.613.392l.619,4.464a33.129,33.129,0,0,1-8.528,5.166,2.465,2.465,0,0,1-1.7-2.73l1.779-11.484a21.292,21.292,0,0,0,11.136-2.21A23.186,23.186,0,0,0,1478.256,1412.48Z" transform="translate(-1460.285 -1405.224)" fill="url(#linear-gradient-2)"/>
      <path id="Path_715-3" data-name="Path 715" d="M1575.142,1023.632l.021.134a23.193,23.193,0,0,1-5.026,3.286,21.289,21.289,0,0,1-11.136,2.21l.872-5.63a1.212,1.212,0,0,1,1.2-1.026h2.481c.16-3.411,1.87-6.1,3.955-6.1s3.8,2.685,3.955,6.1h2.481A1.213,1.213,0,0,1,1575.142,1023.632Zm-10.669-1.026h6.069a9.367,9.367,0,0,0-.27-1.827,6.914,6.914,0,0,0-.748-1.857,3.751,3.751,0,0,0-1-1.14,1.637,1.637,0,0,0-2.028,0,3.753,3.753,0,0,0-1,1.14,6.914,6.914,0,0,0-.747,1.857,9.34,9.34,0,0,0-.27,1.827Z" transform="translate(-1557.191 -1016.51)" fill="url(#linear-gradient-3)"/>
      <path id="Path_716-3" data-name="Path 716" d="M1566.764,2210.356a.752.752,0,0,1-.632,1.16h-10.746a2.463,2.463,0,0,1-.736-.111,33.115,33.115,0,0,0,8.528-5.166l.645,4.648a.282.282,0,0,0,.494.118l1.721-1.774.726,1.125Z" transform="translate(-1552.921 -2184.438)" fill="url(#linear-gradient-4)"/>
      <g id="Group_510-3" data-name="Group 510" transform="translate(1.085 9.931)">
        <path id="Path_717-3" data-name="Path 717" d="M2159.051,1567.44a25,25,0,0,0,5.17-8.5l-.071-.458a23.523,23.523,0,0,1-5.59,8.646Z" transform="translate(-2146.849 -1558.48)" fill="#ce2420"/>
        <path id="Path_718-3" data-name="Path 718" d="M1520.144,2169.782a33.127,33.127,0,0,0,8.527-5.166l-.108-.777a38.36,38.36,0,0,1-9.064,5.632A2.451,2.451,0,0,0,1520.144,2169.782Z" transform="translate(-1519.5 -2152.747)" fill="#ce2420"/>
      </g>
      <path id="Path_719-3" data-name="Path 719" d="M1559.1,1398.2l-.1.638a19.973,19.973,0,0,0,7.419-.775,23.7,23.7,0,0,0,3.717-1.435,23.186,23.186,0,0,0,5.026-3.286l-.021-.134a1.2,1.2,0,0,0-.057-.224A22.173,22.173,0,0,1,1559.1,1398.2Z" transform="translate(-1557.191 -1386.081)" fill="#660c46"/>
      <path id="Path_720-3" data-name="Path 720" d="M1559,1417.968l.546.03c.046,0,.091.007.137.007l.137,0,.273.006.137,0h.137l.273,0,.273,0h.068l.068,0,.137-.007.273-.013c.091-.005.182-.007.273-.016l.544-.045.068-.006.068-.008.136-.016.271-.031.135-.016.068-.008.067-.01.27-.04c.361-.049.718-.121,1.076-.185l.533-.115.133-.029c.044-.009.088-.022.132-.032l.265-.066c.354-.083.7-.189,1.053-.286l.52-.165.13-.042.065-.021.064-.023.257-.091.258-.09.129-.045.127-.049.509-.2c.085-.032.168-.069.252-.1l.251-.107.251-.107c.042-.017.083-.038.124-.056l.124-.057.5-.228c.163-.081.328-.158.489-.242.325-.164.645-.337.963-.514s.63-.365.94-.556.614-.392.915-.6.6-.418.888-.637c.144-.111.29-.221.432-.335s.285-.228.426-.343c-.137.121-.273.243-.412.36s-.281.233-.422.349q-.428.342-.871.666t-.9.62c-.076.05-.154.1-.231.148l-.116.073-.117.071-.234.143-.236.139c-.078.047-.158.091-.238.136s-.159.091-.239.134l-.241.131c-.08.043-.162.085-.243.127-.162.086-.326.165-.49.248l-.5.234c-.083.038-.165.079-.249.116l-.252.108-.252.108c-.084.036-.167.074-.253.106l-.511.2-.128.05-.129.046-.259.092-.259.091-.065.023-.065.021-.131.041-.524.165-.529.148-.132.037-.066.018-.067.016-.267.065-.267.064c-.044.01-.089.022-.134.031l-.135.028-.538.111c-.361.062-.721.128-1.084.171l-.272.036-.068.009-.068.007-.137.013-.273.027-.136.013-.068.006-.068,0-.548.033c-.091.007-.183.007-.274.01l-.274.006-.137,0h-.137l-.274,0-.274,0h-.069l-.068,0-.137-.007-.274-.015c-.091,0-.182-.009-.273-.018l-.545-.053Z" transform="translate(-1557.191 -1405.215)" fill="url(#radial-gradient)"/>
      <path id="Path_721-3" data-name="Path 721" d="M1554.63,2211.425l.57-.258c.189-.088.378-.176.565-.267q.564-.27,1.118-.558c.369-.193.737-.389,1.1-.594s.723-.413,1.079-.629.709-.437,1.058-.665.694-.461,1.036-.7.679-.483,1.012-.732l.25-.188.248-.19.492-.386-.236.206-.239.2-.241.2-.243.2q-.489.39-1,.759c-.337.246-.681.483-1.028.715s-.7.454-1.058.671-.719.425-1.085.626-.736.4-1.11.58-.752.362-1.134.531q-.287.125-.576.245l-.29.119-.292.114Z" transform="translate(-1552.901 -2184.458)" fill="url(#radial-gradient-2)"/>
      <path id="Path_722-3" data-name="Path 722" d="M2185.34,1591.972q.2-.239.4-.478t.4-.485q.392-.488.764-.99c.248-.335.49-.674.724-1.019s.461-.694.679-1.049.429-.714.631-1.078.395-.734.58-1.107.359-.752.525-1.135c.083-.191.164-.383.242-.577s.153-.388.227-.583l-.1.3c-.034.1-.068.2-.1.3q-.106.295-.219.587-.231.583-.5,1.151c-.177.379-.368.752-.566,1.12s-.41.729-.629,1.086-.449.706-.687,1.05-.484.682-.74,1.012-.519.655-.79.973q-.2.237-.414.47l-.211.232-.215.228Z" transform="translate(-2172.054 -1573.081)" fill="url(#radial-gradient-3)"/>
    </g>
    <g id="Group_513-3" data-name="Group 513" transform="translate(43.5 43.744)">
      <text id="Crafty-3" data-name="Crafty" transform="translate(28 18.256)" fill="#07aeaf" font-size="17" font-family="Poppins-Bold, Poppins" font-weight="700"><tspan x="-27.77" y="0">Crafty</tspan></text>
      <text id="Bay-3" data-name="Bay" transform="translate(73 18.256)" fill="#fe9900" font-size="17" font-family="Poppins-Bold, Poppins" font-weight="700"><tspan x="-16.745" y="0">Bay</tspan></text>
    </g>
  </g>
</svg>
