<svg xmlns="http://www.w3.org/2000/svg" xmlns:xlink="http://www.w3.org/1999/xlink" width="153" height="161" viewBox="0 0 153 161">
  <defs>
    <linearGradient id="linear-gradient" x1="0.525" y1="0.413" x2="1.133" y2="0.803" gradientUnits="objectBoundingBox">
      <stop offset="0" stop-color="#44c0c4"/>
      <stop offset="1" stop-color="#007398"/>
    </linearGradient>
    <linearGradient id="linear-gradient-2" x1="0.416" y1="0.376" x2="0.686" y2="0.701" gradientUnits="objectBoundingBox">
      <stop offset="0" stop-color="#f9a546"/>
      <stop offset="1" stop-color="#ed2f24"/>
    </linearGradient>
    <linearGradient id="linear-gradient-3" x1="0.448" y1="0.398" x2="0.526" y2="0.97" gradientUnits="objectBoundingBox">
      <stop offset="0" stop-color="#ec147f"/>
      <stop offset="1" stop-color="#5e1045"/>
    </linearGradient>
    <linearGradient id="linear-gradient-4" x1="1.813" y1="-3.056" x2="0.338" y2="1.435" xlink:href="#linear-gradient"/>
    <radialGradient id="radial-gradient" cx="0.5" cy="0.5" r="1.441" gradientTransform="translate(0.327) scale(0.347 1)" gradientUnits="objectBoundingBox">
      <stop offset="0" stop-color="#fff"/>
      <stop offset="1" stop-color="#f9a546"/>
    </radialGradient>
    <radialGradient id="radial-gradient-2" cx="0.842" cy="0.243" r="2.335" gradientTransform="translate(0.332) scale(0.606 1)" gradientUnits="objectBoundingBox">
      <stop offset="0" stop-color="#fff"/>
      <stop offset="1" stop-color="#007398"/>
    </radialGradient>
    <radialGradient id="radial-gradient-3" cx="0.485" cy="0.611" r="1.33" gradientTransform="translate(-0.322) scale(1.644 1)" xlink:href="#radial-gradient-2"/>
  </defs>
  <g id="Group_1018" data-name="Group 1018" transform="translate(-129 -287)">
    <g id="Group_515" data-name="Group 515">
      <g id="Group_512" data-name="Group 512" transform="translate(5673 -445)">
        <text id="Crafty" transform="translate(-5496 883)" fill="#07aeaf" font-size="29" font-family="Poppins-Bold, Poppins" font-weight="700"><tspan x="-47.371" y="0">Crafty</tspan></text>
        <text id="Bay" transform="translate(-5420 883)" fill="#fe9900" font-size="29" font-family="Poppins-Bold, Poppins" font-weight="700"><tspan x="-28.565" y="0">Bay</tspan></text>
      </g>
      <g id="Group_511" data-name="Group 511" transform="translate(-1295.285 -729.51)">
        <path id="Path_713" data-name="Path 713" d="M2214.519,1638.7c.814,4.185-1.316,6.925-3.836,8.661a6.622,6.622,0,0,1-9.3-1.9l-6.961-10.79,9.3-3.269a1.126,1.126,0,0,0,.4-1.988l-18.779-12.036a108.792,108.792,0,0,0,12.378-16.521,90.682,90.682,0,0,0,8.244-17.391Z" transform="translate(-672.064 -525.523)" fill="url(#linear-gradient)"/>
        <path id="Path_714" data-name="Path 714" d="M1531.962,1412.48l1.937,12.5a99.714,99.714,0,0,1-20.621,33.911l-12.11-7.762a1.64,1.64,0,0,0-2.443,1.563l2.469,17.8a132.122,132.122,0,0,1-34.011,20.6,9.833,9.833,0,0,1-6.779-10.888l7.1-45.805c13.662,1.3,29.333-1.5,44.416-8.816A92.49,92.49,0,0,0,1531.962,1412.48Z" transform="translate(0 -367.03)" fill="url(#linear-gradient-2)"/>
        <path id="Path_715" data-name="Path 715" d="M1623.38,1044.917l.083.534a92.493,92.493,0,0,1-20.047,13.106c-15.083,7.317-30.753,10.117-44.415,8.816l3.48-22.456a4.835,4.835,0,0,1,4.778-4.094h9.9c.639-13.6,7.458-24.313,15.776-24.313s15.137,10.708,15.776,24.313h9.9A4.836,4.836,0,0,1,1623.38,1044.917Zm-42.553-4.094h24.207a37.353,37.353,0,0,0-1.078-7.285,27.593,27.593,0,0,0-2.981-7.408,14.959,14.959,0,0,0-4-4.547,6.53,6.53,0,0,0-8.089,0,14.969,14.969,0,0,0-4,4.547,27.573,27.573,0,0,0-2.981,7.408,37.307,37.307,0,0,0-1.078,7.285Z" transform="translate(-91.5)" fill="url(#linear-gradient-3)"/>
        <path id="Path_716" data-name="Path 716" d="M1602.964,2222.659a3,3,0,0,1-2.521,4.627h-42.859a9.85,9.85,0,0,1-2.934-.444,132.122,132.122,0,0,0,34.011-20.6l2.572,18.538a1.125,1.125,0,0,0,1.97.471l6.865-7.078,2.9,4.488Z" transform="translate(-87.469 -1102.776)" fill="url(#linear-gradient-4)"/>
        <g id="Group_510" data-name="Group 510" transform="translate(1464.613 1056.121)">
          <path id="Path_717" data-name="Path 717" d="M2160.517,1594.218a99.7,99.7,0,0,0,20.621-33.911l-.283-1.826c-4.153,12.343-12.192,24.1-22.3,34.484Z" transform="translate(-2111.853 -1558.48)" fill="#ce2420"/>
          <path id="Path_718" data-name="Path 718" d="M1522.069,2187.542a132.122,132.122,0,0,0,34.011-20.6l-.43-3.1A152.978,152.978,0,0,1,1519.5,2186.3,9.776,9.776,0,0,0,1522.069,2187.542Z" transform="translate(-1519.5 -2119.596)" fill="#ce2420"/>
        </g>
        <path id="Path_719" data-name="Path 719" d="M1559.395,1413.782l-.395,2.546a79.662,79.662,0,0,0,29.592-3.092,94.5,94.5,0,0,0,14.823-5.723,92.484,92.484,0,0,0,20.047-13.107l-.083-.533a4.77,4.77,0,0,0-.227-.892C1599.8,1412.584,1573.635,1415.161,1559.395,1413.782Z" transform="translate(-91.5 -348.955)" fill="#660c46"/>
        <path id="Path_720" data-name="Path 720" d="M1559,1434.394l2.179.121c.182.008.363.027.544.027l.545.012,1.09.024.545.012.273.006c.091,0,.182,0,.273,0l1.09-.016,1.09-.016.273-.005.272-.014.545-.028,1.088-.052c.363-.02.726-.026,1.088-.062l2.171-.179c.091-.008.181-.014.271-.023l.27-.032.541-.063,1.082-.123.541-.062.271-.031.269-.04,1.077-.161c1.438-.194,2.862-.481,4.29-.736l2.128-.459.532-.115c.177-.037.352-.086.528-.129l1.055-.265c1.412-.333,2.8-.752,4.2-1.142l2.073-.659.518-.165c.086-.028.173-.054.259-.083l.257-.091,1.025-.363,1.027-.36.513-.18.507-.2,2.03-.786c.341-.126.671-.276,1.006-.416l1-.425,1-.425c.168-.068.33-.151.5-.224l.495-.227,1.978-.909c.651-.321,1.307-.631,1.951-.965,1.3-.653,2.573-1.343,3.842-2.049s2.512-1.457,3.749-2.217,2.448-1.563,3.65-2.381,2.381-1.668,3.543-2.541c.576-.444,1.157-.881,1.723-1.338s1.136-.909,1.7-1.368c-.546.482-1.087.969-1.644,1.438s-1.12.93-1.683,1.392q-1.706,1.366-3.472,2.656-1.777,1.274-3.608,2.472c-.3.2-.614.393-.922.589l-.462.292-.466.285-.935.569-.943.555c-.313.187-.632.364-.949.545s-.633.363-.954.536l-.962.522c-.321.173-.646.338-.969.508-.645.342-1.3.66-1.952.99l-1.98.933c-.331.153-.658.315-.992.461l-1.006.431-1.006.431c-.336.142-.668.294-1.01.422l-2.039.8-.51.2-.516.183-1.032.365-1.033.362-.258.091c-.086.029-.174.056-.261.083l-.523.165-2.089.657-2.109.589-.527.147c-.088.024-.175.05-.264.072l-.266.065-1.064.257-1.065.256c-.178.041-.354.088-.533.124l-.536.11-2.144.441c-1.439.246-2.875.512-4.325.683l-1.085.145-.271.036-.273.027-.545.053-1.089.107-.544.052-.272.026c-.091.008-.182.012-.273.018l-2.185.131c-.363.028-.729.026-1.093.038l-1.093.026-.547.011-.273.006-.273,0-1.093-.018-1.093-.018c-.091,0-.182,0-.273-.006l-.273-.015-.546-.029-1.091-.058c-.364-.02-.727-.034-1.09-.074l-2.174-.21Z" transform="translate(-91.5 -367.022)" fill="url(#radial-gradient)"/>
        <path id="Path_721" data-name="Path 721" d="M1554.631,2226.861l2.273-1.028q1.132-.523,2.256-1.064,2.248-1.077,4.46-2.226c1.473-.769,2.937-1.552,4.383-2.369s2.885-1.647,4.3-2.51,2.828-1.742,4.219-2.65,2.766-1.838,4.13-2.787,2.708-1.926,4.038-2.922l1-.748.99-.758,1.963-1.539-.94.822-.953.806-.961.8-.969.787q-1.953,1.557-3.972,3.028c-1.344.983-2.717,1.928-4.1,2.853s-2.8,1.811-4.219,2.677-2.869,1.7-4.328,2.5-2.935,1.577-4.429,2.313-3,1.446-4.523,2.119q-1.143.5-2.3.979l-1.156.472-1.163.453Z" transform="translate(-87.45 -1102.795)" fill="url(#radial-gradient-2)"/>
        <path id="Path_722" data-name="Path 722" d="M2185.34,1617.381q.81-.951,1.613-1.907t1.577-1.935q1.563-1.945,3.048-3.948c.987-1.337,1.955-2.689,2.885-4.066s1.839-2.768,2.708-4.184,1.712-2.847,2.517-4.3,1.573-2.926,2.312-4.416,1.433-3,2.092-4.526q.5-1.143.965-2.3t.9-2.327l-.387,1.188c-.137.393-.271.788-.412,1.18-.282.784-.573,1.565-.877,2.341q-.921,2.324-1.985,4.591c-.706,1.511-1.467,3-2.258,4.466s-1.636,2.909-2.508,4.33-1.79,2.816-2.739,4.188-1.932,2.72-2.953,4.038-2.07,2.614-3.153,3.881q-.816.947-1.652,1.875l-.841.924-.857.909Z" transform="translate(-672.064 -525.523)" fill="url(#radial-gradient-3)"/>
      </g>
      <g id="Group_513" data-name="Group 513" transform="translate(5673 -445)">
        <text id="Crafty-2" data-name="Crafty" transform="translate(-5496 883)" fill="#07aeaf" font-size="29" font-family="Poppins-Bold, Poppins" font-weight="700"><tspan x="-47.371" y="0">Crafty</tspan></text>
        <text id="Bay-2" data-name="Bay" transform="translate(-5420 883)" fill="#fe9900" font-size="29" font-family="Poppins-Bold, Poppins" font-weight="700"><tspan x="-28.565" y="0">Bay</tspan></text>
      </g>
      <g id="Group_514" data-name="Group 514" transform="translate(-1295.285 -729.51)">
        <path id="Path_713-2" data-name="Path 713" d="M2214.519,1638.7c.814,4.185-1.316,6.925-3.836,8.661a6.622,6.622,0,0,1-9.3-1.9l-6.961-10.79,9.3-3.269a1.126,1.126,0,0,0,.4-1.988l-18.779-12.036a108.792,108.792,0,0,0,12.378-16.521,90.682,90.682,0,0,0,8.244-17.391Z" transform="translate(-672.064 -525.523)" fill="url(#linear-gradient)"/>
        <path id="Path_714-2" data-name="Path 714" d="M1531.962,1412.48l1.937,12.5a99.714,99.714,0,0,1-20.621,33.911l-12.11-7.762a1.64,1.64,0,0,0-2.443,1.563l2.469,17.8a132.122,132.122,0,0,1-34.011,20.6,9.833,9.833,0,0,1-6.779-10.888l7.1-45.805c13.662,1.3,29.333-1.5,44.416-8.816A92.49,92.49,0,0,0,1531.962,1412.48Z" transform="translate(0 -367.03)" fill="url(#linear-gradient-2)"/>
        <path id="Path_715-2" data-name="Path 715" d="M1623.38,1044.917l.083.534a92.493,92.493,0,0,1-20.047,13.106c-15.083,7.317-30.753,10.117-44.415,8.816l3.48-22.456a4.835,4.835,0,0,1,4.778-4.094h9.9c.639-13.6,7.458-24.313,15.776-24.313s15.137,10.708,15.776,24.313h9.9A4.836,4.836,0,0,1,1623.38,1044.917Zm-42.553-4.094h24.207a37.353,37.353,0,0,0-1.078-7.285,27.593,27.593,0,0,0-2.981-7.408,14.959,14.959,0,0,0-4-4.547,6.53,6.53,0,0,0-8.089,0,14.969,14.969,0,0,0-4,4.547,27.573,27.573,0,0,0-2.981,7.408,37.307,37.307,0,0,0-1.078,7.285Z" transform="translate(-91.5)" fill="url(#linear-gradient-3)"/>
        <path id="Path_716-2" data-name="Path 716" d="M1602.964,2222.659a3,3,0,0,1-2.521,4.627h-42.859a9.85,9.85,0,0,1-2.934-.444,132.122,132.122,0,0,0,34.011-20.6l2.572,18.538a1.125,1.125,0,0,0,1.97.471l6.865-7.078,2.9,4.488Z" transform="translate(-87.469 -1102.776)" fill="url(#linear-gradient-4)"/>
        <g id="Group_510-2" data-name="Group 510" transform="translate(1464.613 1056.121)">
          <path id="Path_717-2" data-name="Path 717" d="M2160.517,1594.218a99.7,99.7,0,0,0,20.621-33.911l-.283-1.826c-4.153,12.343-12.192,24.1-22.3,34.484Z" transform="translate(-2111.853 -1558.48)" fill="#ce2420"/>
          <path id="Path_718-2" data-name="Path 718" d="M1522.069,2187.542a132.122,132.122,0,0,0,34.011-20.6l-.43-3.1A152.978,152.978,0,0,1,1519.5,2186.3,9.776,9.776,0,0,0,1522.069,2187.542Z" transform="translate(-1519.5 -2119.596)" fill="#ce2420"/>
        </g>
        <path id="Path_719-2" data-name="Path 719" d="M1559.395,1413.782l-.395,2.546a79.662,79.662,0,0,0,29.592-3.092,94.5,94.5,0,0,0,14.823-5.723,92.484,92.484,0,0,0,20.047-13.107l-.083-.533a4.77,4.77,0,0,0-.227-.892C1599.8,1412.584,1573.635,1415.161,1559.395,1413.782Z" transform="translate(-91.5 -348.955)" fill="#660c46"/>
        <path id="Path_720-2" data-name="Path 720" d="M1559,1434.394l2.179.121c.182.008.363.027.544.027l.545.012,1.09.024.545.012.273.006c.091,0,.182,0,.273,0l1.09-.016,1.09-.016.273-.005.272-.014.545-.028,1.088-.052c.363-.02.726-.026,1.088-.062l2.171-.179c.091-.008.181-.014.271-.023l.27-.032.541-.063,1.082-.123.541-.062.271-.031.269-.04,1.077-.161c1.438-.194,2.862-.481,4.29-.736l2.128-.459.532-.115c.177-.037.352-.086.528-.129l1.055-.265c1.412-.333,2.8-.752,4.2-1.142l2.073-.659.518-.165c.086-.028.173-.054.259-.083l.257-.091,1.025-.363,1.027-.36.513-.18.507-.2,2.03-.786c.341-.126.671-.276,1.006-.416l1-.425,1-.425c.168-.068.33-.151.5-.224l.495-.227,1.978-.909c.651-.321,1.307-.631,1.951-.965,1.3-.653,2.573-1.343,3.842-2.049s2.512-1.457,3.749-2.217,2.448-1.563,3.65-2.381,2.381-1.668,3.543-2.541c.576-.444,1.157-.881,1.723-1.338s1.136-.909,1.7-1.368c-.546.482-1.087.969-1.644,1.438s-1.12.93-1.683,1.392q-1.706,1.366-3.472,2.656-1.777,1.274-3.608,2.472c-.3.2-.614.393-.922.589l-.462.292-.466.285-.935.569-.943.555c-.313.187-.632.364-.949.545s-.633.363-.954.536l-.962.522c-.321.173-.646.338-.969.508-.645.342-1.3.66-1.952.99l-1.98.933c-.331.153-.658.315-.992.461l-1.006.431-1.006.431c-.336.142-.668.294-1.01.422l-2.039.8-.51.2-.516.183-1.032.365-1.033.362-.258.091c-.086.029-.174.056-.261.083l-.523.165-2.089.657-2.109.589-.527.147c-.088.024-.175.05-.264.072l-.266.065-1.064.257-1.065.256c-.178.041-.354.088-.533.124l-.536.11-2.144.441c-1.439.246-2.875.512-4.325.683l-1.085.145-.271.036-.273.027-.545.053-1.089.107-.544.052-.272.026c-.091.008-.182.012-.273.018l-2.185.131c-.363.028-.729.026-1.093.038l-1.093.026-.547.011-.273.006-.273,0-1.093-.018-1.093-.018c-.091,0-.182,0-.273-.006l-.273-.015-.546-.029-1.091-.058c-.364-.02-.727-.034-1.09-.074l-2.174-.21Z" transform="translate(-91.5 -367.022)" fill="url(#radial-gradient)"/>
        <path id="Path_721-2" data-name="Path 721" d="M1554.631,2226.861l2.273-1.028q1.132-.523,2.256-1.064,2.248-1.077,4.46-2.226c1.473-.769,2.937-1.552,4.383-2.369s2.885-1.647,4.3-2.51,2.828-1.742,4.219-2.65,2.766-1.838,4.13-2.787,2.708-1.926,4.038-2.922l1-.748.99-.758,1.963-1.539-.94.822-.953.806-.961.8-.969.787q-1.953,1.557-3.972,3.028c-1.344.983-2.717,1.928-4.1,2.853s-2.8,1.811-4.219,2.677-2.869,1.7-4.328,2.5-2.935,1.577-4.429,2.313-3,1.446-4.523,2.119q-1.143.5-2.3.979l-1.156.472-1.163.453Z" transform="translate(-87.45 -1102.795)" fill="url(#radial-gradient-2)"/>
        <path id="Path_722-2" data-name="Path 722" d="M2185.34,1617.381q.81-.951,1.613-1.907t1.577-1.935q1.563-1.945,3.048-3.948c.987-1.337,1.955-2.689,2.885-4.066s1.839-2.768,2.708-4.184,1.712-2.847,2.517-4.3,1.573-2.926,2.312-4.416,1.433-3,2.092-4.526q.5-1.143.965-2.3t.9-2.327l-.387,1.188c-.137.393-.271.788-.412,1.18-.282.784-.573,1.565-.877,2.341q-.921,2.324-1.985,4.591c-.706,1.511-1.467,3-2.258,4.466s-1.636,2.909-2.508,4.33-1.79,2.816-2.739,4.188-1.932,2.72-2.953,4.038-2.07,2.614-3.153,3.881q-.816.947-1.652,1.875l-.841.924-.857.909Z" transform="translate(-672.064 -525.523)" fill="url(#radial-gradient-3)"/>
      </g>
    </g>
  </g>
</svg>
